<svg width="72" height="76" viewBox="0 0 72 76" fill="none" xmlns="http://www.w3.org/2000/svg">
<path d="M17.4941 68.2671C17.4941 67.0108 17.4941 65.7546 17.4941 64.4983C17.503 64.447 17.5012 64.3943 17.4888 64.3437C17.4764 64.2931 17.4536 64.2455 17.4218 64.2039C17.39 64.1624 17.35 64.1277 17.3042 64.1021C17.2583 64.0765 17.2077 64.0604 17.1553 64.0549C14.0101 63.1704 11.1071 61.5946 8.6627 59.4449C6.88165 57.841 5.39875 55.9401 4.28145 53.8288C2.70662 50.7789 1.65855 47.4896 1.18069 44.0971C0.588619 39.8417 0.382994 35.5423 0.566283 31.2505C0.606478 29.2496 0.709837 27.2714 0.939522 25.2705C1.30583 21.4682 2.27472 17.7467 3.81059 14.2428C5.70711 9.93466 9.14765 6.47406 13.4689 4.52827C16.4125 3.19477 19.5093 2.22125 22.6907 1.62924C25.8107 1.04422 28.9696 0.685158 32.1423 0.554895C35.0022 0.454776 37.8654 0.496514 40.7211 0.679951C44.8082 0.850735 48.8584 1.52088 52.7796 2.67516C55.6868 3.50478 58.4525 4.75972 60.9851 6.39842C63.4527 8.07538 65.4486 10.3465 66.7846 12.998C68.3554 16.0948 69.4231 19.4173 69.9485 22.8433C70.2899 24.8773 70.5142 26.9289 70.6204 28.9881C70.7697 31.5404 70.7524 34.104 70.6548 36.6449C70.5572 39.1858 70.339 41.6529 70.0232 44.1426C69.624 47.8795 68.4637 51.4975 66.6124 54.7781C64.2026 58.928 60.3425 62.0619 55.7597 63.5888C52.6261 64.6752 49.3906 65.4483 46.1014 65.8967C43.6955 66.2264 41.2838 66.4651 38.8606 66.5618C37.0059 66.647 35.1512 66.6243 33.2965 66.5959C32.2457 66.5959 31.2006 66.4935 30.1555 66.4026C30.0529 66.3834 29.9469 66.3948 29.8508 66.4353C29.7548 66.4758 29.673 66.5435 29.6158 66.63C27.5027 69.1425 25.3092 71.5867 23.0984 74.0196C22.6957 74.4635 22.2295 74.8465 21.7146 75.1565C21.3766 75.376 20.9912 75.5138 20.5895 75.5587C20.1877 75.6035 19.781 75.5543 19.4021 75.4149C19.0231 75.2754 18.6827 75.0498 18.4081 74.7561C18.1335 74.4623 17.9325 74.1088 17.8214 73.7241C17.6026 73.0403 17.4941 72.3267 17.4999 71.6095C17.4941 70.484 17.4941 69.3755 17.4941 68.2671ZM20.0494 73.0362L20.3192 72.7861L25.1139 67.5167C26.9591 65.4893 28.8023 63.46 30.6436 61.4288C30.7341 61.3049 30.8562 61.2069 30.9975 61.145C31.1387 61.0831 31.294 61.0594 31.4475 61.0763C32.0734 61.1389 32.6993 61.1616 33.3309 61.1673C35.5129 61.1673 37.695 61.1673 39.877 61.0138C41.858 60.8603 43.8333 60.6216 45.7971 60.3146C47.9115 59.9502 50.0046 59.474 52.0675 58.8879C56.6612 57.6657 60.2156 55.0509 62.4493 50.8161C63.768 48.2124 64.5951 45.3921 64.8897 42.4941C65.2388 39.7627 65.4477 37.0155 65.5156 34.2632C65.6174 30.8056 65.3789 27.3465 64.8036 23.9347C64.4047 21.4628 63.6868 19.0519 62.6675 16.761C61.3698 13.9188 59.5323 11.5655 56.7014 10.0535C52.3604 7.73425 47.6633 6.69969 42.8227 6.17105C41.4503 6.02325 40.0779 5.94367 38.6998 5.89251C35.878 5.7485 33.0502 5.76368 30.2302 5.93799C28.2021 6.08699 26.1849 6.35653 24.1894 6.74517C21.2549 7.27471 18.4161 8.23254 15.7657 9.58735C14.2292 10.3559 12.8352 11.3765 11.6429 12.6057C9.71045 14.7439 8.29296 17.2879 7.49704 20.0466C6.55284 23.2594 6.03741 26.5808 5.96389 29.926C5.77914 33.2712 5.82134 36.625 6.09022 39.9646C6.25751 41.9521 6.59365 43.922 7.09509 45.8536C7.84116 48.8637 9.28849 51.6591 11.3213 54.0164C13.516 56.4212 16.3525 58.1632 19.5039 59.0413C19.9001 59.1607 20.0781 59.2971 20.0781 59.7405C20.0436 61.3776 20.0781 63.0147 20.0781 64.6518L20.0494 73.0362Z" fill="#754A91"/>
<path d="M16.0311 22.2641C15.9909 21.0192 16.6742 20.1154 17.5011 19.3025C18.5916 18.2684 19.7931 17.3553 21.0841 16.5797C21.6729 16.2203 22.3729 16.0834 23.0554 16.1941C23.738 16.3048 24.3572 16.6557 24.7993 17.1823C26.3614 18.8077 27.7595 20.5802 28.9738 22.4744C29.5752 23.3265 30.0293 24.2716 30.3175 25.2711C30.4327 25.6612 30.4402 26.0747 30.3392 26.4685C30.2382 26.8624 30.0324 27.2223 29.7433 27.5108C29.0809 28.1545 28.3748 28.7527 27.6302 29.3013C27.255 29.5974 26.976 29.9961 26.8279 30.4479C26.6799 30.8997 26.6693 31.3846 26.7976 31.8423C27.2574 33.9914 28.2996 35.9761 29.8122 37.5835C31.6502 39.8048 34.0184 41.5377 36.7028 42.6255C37.3624 42.9612 38.1181 43.0635 38.8446 42.9154C39.2424 42.808 39.596 42.5792 39.8552 42.2617C40.2571 41.7558 40.6936 41.2669 41.0553 40.7269C41.5245 40.0533 42.2409 39.5878 43.0518 39.4296C43.8628 39.2713 44.7041 39.433 45.3964 39.88C47.3428 40.9979 49.1805 42.2919 50.8858 43.7453C51.2878 44.0864 51.707 44.4161 52.1089 44.7628C52.5845 45.1219 52.928 45.6255 53.0867 46.1964C53.2454 46.7673 53.2105 47.3739 52.9875 47.9233C52.6327 48.8472 52.1156 49.7017 51.4601 50.4472C50.6454 51.568 49.6078 52.512 48.411 53.2212C47.8389 53.5538 47.196 53.7491 46.5339 53.7915C45.8718 53.834 45.2089 53.7224 44.5982 53.4656C39.9524 51.614 35.6115 49.087 31.7186 45.9679C27.911 42.8649 24.5834 39.2261 21.8421 35.1676C19.5354 31.8078 17.7003 28.1535 16.3871 24.3048C16.2472 23.8393 16.1322 23.3668 16.0425 22.8894C16.017 22.6819 16.0132 22.4724 16.0311 22.2641V22.2641Z" fill="#754A91"/>
<path d="M35.8556 16.2157C39.7426 16.2869 43.4811 17.7062 46.4192 20.2264C49.3574 22.7465 51.309 26.2075 51.9336 30.006C52.1851 31.3871 52.3195 32.7865 52.3356 34.1897C52.3356 34.5194 52.2494 34.7581 51.8934 34.7923C51.5374 34.8264 51.4455 34.5251 51.4455 34.2238C51.4989 31.3855 50.9103 28.5712 49.7229 25.9872C48.7229 23.8639 47.2416 21.9976 45.3942 20.5335C43.5467 19.0694 41.3829 18.047 39.0712 17.5459C37.849 17.2658 36.5991 17.1209 35.3446 17.1139C35.2224 17.116 35.1006 17.1006 34.9828 17.0684C34.8826 17.0404 34.7972 16.975 34.7447 16.8859C34.6922 16.7968 34.6767 16.6911 34.7014 16.5909C34.7022 16.5434 34.7125 16.4965 34.7317 16.453C34.7509 16.4094 34.7787 16.3701 34.8135 16.3373C34.8482 16.3045 34.8892 16.2789 34.934 16.2619C34.9789 16.2449 35.0267 16.237 35.0747 16.2385C35.3331 16.2044 35.5972 16.2157 35.8556 16.2157Z" fill="#754A91"/>
<path d="M46.9403 31.6316C46.921 30.0524 46.5281 28.4996 45.7932 27.0979C45.0583 25.6961 44.0017 24.4843 42.7083 23.5598C41.1988 22.5101 39.4438 21.8586 37.6093 21.6669C37.2992 21.6271 36.9891 21.61 36.6733 21.5759C36.3575 21.5418 36.168 21.4111 36.1967 21.0928C36.2254 20.7744 36.4264 20.6608 36.7709 20.6835C41.8585 20.9905 46.188 23.8383 47.5202 29.1418C47.7639 30.1645 47.8853 31.2119 47.882 32.2626C47.882 32.3592 47.882 32.4558 47.882 32.5468C47.882 32.831 47.6982 33.0186 47.4168 33.0129C47.3544 33.0108 47.2931 32.9962 47.2366 32.9698C47.1802 32.9435 47.1297 32.9061 47.0883 32.8598C47.0469 32.8135 47.0155 32.7594 46.996 32.7006C46.9764 32.6419 46.9692 32.5799 46.9747 32.5183C46.9288 32.2512 46.9403 31.9783 46.9403 31.6316Z" fill="#754A91"/>
<path d="M38.0266 25.299C40.8173 25.4865 42.7638 26.8394 43.2979 29.7782C43.3626 30.1547 43.4086 30.5341 43.4357 30.9151C43.4357 31.2221 43.3668 31.4836 43.028 31.4836C42.6892 31.4836 42.5744 31.2562 42.5629 30.9151C42.5597 29.7886 42.2091 28.6899 41.558 27.766C40.8737 26.9292 39.8914 26.3839 38.8133 26.2426C38.5722 26.1979 38.3287 26.1676 38.084 26.1516C37.6821 26.1516 37.4581 25.9527 37.5098 25.6457C37.5615 25.3387 37.8026 25.2819 38.0266 25.299Z" fill="#754A91"/>
</svg>

