<svg width="70" height="70" viewBox="0 0 70 70" fill="none" xmlns="http://www.w3.org/2000/svg">
<path d="M4.375 26.1528C4.375 18.5298 4.375 14.7184 5.85852 11.8068C7.16347 9.2457 9.2457 7.16347 11.8068 5.85852C14.7184 4.375 18.5298 4.375 26.1528 4.375H43.8472C51.4702 4.375 55.2816 4.375 58.1932 5.85852C60.7543 7.16347 62.8365 9.2457 64.1415 11.8068C65.625 14.7184 65.625 18.5298 65.625 26.1528V43.8472C65.625 51.4702 65.625 55.2816 64.1415 58.1932C62.8365 60.7543 60.7543 62.8365 58.1932 64.1415C55.2816 65.625 51.4702 65.625 43.8472 65.625H26.1528C18.5298 65.625 14.7184 65.625 11.8068 64.1415C9.2457 62.8365 7.16347 60.7543 5.85852 58.1932C4.375 55.2816 4.375 51.4702 4.375 43.8472V26.1528Z" fill="white"/>
<path d="M48.2372 18.644L35.1404 28.8649L21.7441 18.644V18.6467L21.7603 18.6605V32.9726L34.9893 43.4145L48.2372 33.3759V18.644Z" fill="#EA4335"/>
<path d="M51.6762 16.1577L48.2368 18.6439V33.3758L59.0595 25.0665V20.061C59.0595 20.061 57.7458 12.9119 51.6762 16.1577Z" fill="#FBBC05"/>
<path d="M48.2368 33.3761V52.4837H56.5319C56.5319 52.4837 58.8923 52.2406 59.0622 49.5501V25.0668L48.2368 33.3761Z" fill="#34A853"/>
<path d="M21.7609 52.4999V32.9724L21.7441 32.9586L21.7609 52.4999Z" fill="#C5221F"/>
<path d="M21.744 18.6469L18.3235 16.1745C12.2539 12.9287 10.9375 20.075 10.9375 20.075V25.0805L21.744 32.9589V18.6469Z" fill="#C5221F"/>
<path d="M21.7441 18.6466V32.9587L21.7609 32.9725V18.6604L21.7441 18.6466Z" fill="#C5221F"/>
<path d="M10.9375 25.0831V49.5663C11.1048 52.2597 13.4678 52.5 13.4678 52.5H21.7629L21.744 32.9587L10.9375 25.0831Z" fill="#4285F4"/>
</svg>
