<svg width="60" height="60" viewBox="0 0 81 80" fill="none" xmlns="http://www.w3.org/2000/svg">
<path fill-rule="evenodd" clip-rule="evenodd" d="M66.6562 34.5C66.6562 32.9294 65.523 31.6562 64.125 31.6562H16.875C15.477 31.6562 14.3438 32.9294 14.3438 34.5C14.3438 36.0706 15.477 37.3437 16.875 37.3437H64.125C65.523 37.3437 66.6562 36.0706 66.6562 34.5Z" fill="#DDD0C8"/>
<path fill-rule="evenodd" clip-rule="evenodd" d="M66.6562 15.5417C66.6562 13.9711 65.523 12.6979 64.125 12.6979H16.875C15.477 12.6979 14.3438 13.9711 14.3438 15.5417C14.3438 17.1122 15.477 18.3854 16.875 18.3854H64.125C65.523 18.3854 66.6562 17.1122 66.6562 15.5417Z" fill="#DDD0C8"/>
<path fill-rule="evenodd" clip-rule="evenodd" d="M66.6562 53.4583C66.6562 51.8878 65.523 50.6146 64.125 50.6146H16.875C15.477 50.6146 14.3438 51.8878 14.3438 53.4583C14.3438 55.0289 15.477 56.3021 16.875 56.3021H64.125C65.523 56.3021 66.6562 55.0289 66.6562 53.4583Z" fill="#DDD0C8"/>
</svg>
