<svg width="64" height="64" viewBox="0 0 64 64" fill="none" xmlns="http://www.w3.org/2000/svg">
<path d="M59.6239 25.2477C61.1537 28.4197 62 31.9092 62 35.5729C62 50.1682 48.5685 62 32 62C15.4315 62 2 50.1682 2 35.5729C2 22.2882 13.1275 11.2929 27.6199 9.42536C29.3899 6.83886 33.1648 1.73484 34.1044 2.01075C35.279 2.35564 35.8897 7.53545 37.6525 7.8739C40.5155 8.42356 47.0979 10.0295 49.6672 10.633C51.4209 9.39716 55.2512 7.12807 56.5432 7.93856C58.2806 20.6132 48.3997 37.058 33.8352 28.384" stroke="#323232" stroke-width="3"/>
<path d="M33.5662 16.8735C34.0719 17.5202 35.8516 18.6195 38.9251 17.8435" stroke="#323232"/>
<path d="M45.1404 19.1367C45.6788 19.9774 47.8419 21.1198 50.9153 20.3438" stroke="#323232"/>
<path d="M38.0439 23.9518C38.0439 25.1509 42.7911 26.2071 43.6476 25.4311" stroke="#323232"/>
<path d="M40.3571 25.2026C40.5398 24.9282 41.0537 24.5428 40.8824 22.5645" stroke="#323232"/>
</svg>