<svg width="429" height="384" viewBox="0 0 429 384" fill="none" xmlns="http://www.w3.org/2000/svg">
<path d="M294.719 247.415C269.499 235.114 241.311 241.016 231.761 260.597C222.211 280.178 234.914 306.023 260.135 318.324C285.356 330.625 313.543 324.723 323.093 305.143C332.643 285.562 319.94 259.716 294.719 247.415Z" stroke="#323232" stroke-width="3" stroke-linecap="round" stroke-linejoin="round"/>
<path d="M349.066 135.988C323.846 123.687 295.658 129.588 286.108 149.169C276.558 168.75 289.261 194.595 314.482 206.896C339.703 219.197 367.89 213.296 377.44 193.715C386.99 174.134 374.287 148.289 349.066 135.988Z" stroke="#323232" stroke-width="3" stroke-linecap="round" stroke-linejoin="round"/>
<path d="M59.6734 182.934L283.165 166.794" stroke="#323232" stroke-width="3" stroke-linecap="round" stroke-linejoin="round"/>
<path d="M118.813 61.6803L243.64 247.832" stroke="#323232" stroke-width="3" stroke-linecap="round" stroke-linejoin="round"/>
</svg>
